<svg xmlns="http://www.w3.org/2000/svg" version="1.1" xmlns:xlink="http://www.w3.org/1999/xlink" xmlns:svgjs="http://svgjs.com/svgjs" width="1920" height="1080" preserveAspectRatio="none" viewBox="0 0 1920 1080">
    <g mask="url(&quot;#SvgjsMask1024&quot;)" fill="none">
        <rect width="1920" height="1080" x="0" y="0" fill="rgba(255, 255, 255, 1)"></rect>
        <path d="M793.109,741.37C869.482,741.589,930.024,683.277,966.314,616.077C1000.623,552.546,1004.432,477.417,969.896,414.009C933.769,347.681,868.625,299.473,793.109,298.078C715.304,296.641,641.662,338.816,604.635,407.261C569.189,472.785,585.013,550.203,621.615,615.088C658.999,681.359,717.021,741.152,793.109,741.37" fill="rgba(0, 145, 255, 0.4)" class="triangle-float3"></path>
        <path d="M1025.306,626.249C1127.17,626.833,1201.21,544.463,1255.863,458.499C1316.4,363.28,1381.146,250.18,1327.514,150.907C1272.349,48.797,1141.029,22.924,1025.306,31.742C925.02,39.384,840.872,102.835,793.572,191.595C749.156,274.942,754.85,372.542,799.282,455.881C846.855,545.112,924.187,625.669,1025.306,626.249" fill="rgba(0, 145, 255, 0.4)" class="triangle-float1"></path>
        <path d="M1694.215,537.405C1734.103,537.154,1763.606,504.853,1783.382,470.212C1802.949,435.937,1815.086,394.519,1795.273,360.385C1775.519,326.354,1733.562,316.225,1694.215,316.595C1655.649,316.958,1615.965,329.021,1596.394,362.255C1576.579,395.902,1584.043,437.254,1603.083,471.346C1622.69,506.454,1654.004,537.658,1694.215,537.405" fill="rgba(0, 145, 255, 0.4)" class="triangle-float1"></path>
        <path d="M290.854,505.108C390.587,508.944,477.143,441.432,526.123,354.47C574.147,269.206,582.801,162.953,529.96,80.588C480.477,3.458,382.387,-16.631,290.854,-12.251C207.93,-8.283,130.462,30.176,88.348,101.72C45.612,174.321,47.178,262.211,84.975,337.501C127.528,422.265,196.078,501.462,290.854,505.108" fill="rgba(0, 145, 255, 0.4)" class="triangle-float1"></path>
        <path d="M529.009,725.095C570.79,727.047,611.697,706.919,632.709,670.753C653.812,634.43,650.641,589.153,628.856,553.235C607.873,518.638,569.42,497.723,529.009,499.776C491.677,501.672,463.18,529.726,445.312,562.559C428.349,593.729,424.593,630.237,440.839,661.787C458.593,696.263,490.272,723.285,529.009,725.095" fill="rgba(0, 145, 255, 0.4)" class="triangle-float1"></path>
        <path d="M1945.877,1001.687C2043.415,1003.004,2154.894,993.442,2202.436,908.265C2249.313,824.28,2192.946,728.556,2144.803,645.29C2096.737,562.157,2041.751,469.967,1945.877,464.53C1843.148,458.704,1753.907,530.505,1703.612,620.269C1654.499,707.924,1647.174,816.68,1701.045,901.494C1751.718,981.272,1851.375,1000.411,1945.877,1001.687" fill="rgba(0, 145, 255, 0.4)" class="triangle-float2"></path>
        <path d="M1512.417,512.587C1601.092,507.756,1672.507,446.049,1714.451,367.771C1753.896,294.157,1753.463,208.28,1715.272,134.008C1673.149,52.091,1604.497,-27.581,1512.417,-25.131C1422.823,-22.747,1372.701,66.972,1327.435,144.327C1281.475,222.869,1227.433,310.761,1268.28,392.079C1311.941,478.998,1415.292,517.879,1512.417,512.587" fill="rgba(0, 145, 255, 0.4)" class="triangle-float3"></path>
        <path d="M1760.44,328.461C1799.626,329.791,1840.696,315.106,1859.161,280.517C1876.87,247.344,1861.264,208.71,1841.421,176.767C1822.949,147.03,1795.429,122.717,1760.44,121.597C1723.579,120.417,1688.342,139.309,1669.955,171.279C1651.619,203.161,1654.331,242.315,1672.68,274.19C1691.072,306.139,1723.596,327.211,1760.44,328.461" fill="rgba(0, 145, 255, 0.4)" class="triangle-float3"></path>
    </g>
    <defs>
        <mask id="SvgjsMask1024">
            <rect width="1920" height="1080" fill="#ffffff"></rect>
        </mask>
        <style>
            @keyframes float1 {
                0%{transform: translate(0, 0)}
                50%{transform: translate(-10px, 0)}
                100%{transform: translate(0, 0)}
            }

            .triangle-float1 {
                animation: float1 5s infinite;
            }

            @keyframes float2 {
                0%{transform: translate(0, 0)}
                50%{transform: translate(-5px, -5px)}
                100%{transform: translate(0, 0)}
            }

            .triangle-float2 {
                animation: float2 4s infinite;
            }

            @keyframes float3 {
                0%{transform: translate(0, 0)}
                50%{transform: translate(0, -10px)}
                100%{transform: translate(0, 0)}
            }

            .triangle-float3 {
                animation: float3 6s infinite;
            }
        </style>
    </defs>
</svg>