<svg xmlns="http://www.w3.org/2000/svg" version="1.1" xmlns:xlink="http://www.w3.org/1999/xlink" xmlns:svgjs="http://svgjs.com/svgjs" width="1920" height="1080" preserveAspectRatio="none" viewBox="0 0 1920 1080">
    <g mask="url(&quot;#SvgjsMask1031&quot;)" fill="none">
        <rect width="1920" height="1080" x="0" y="0" fill="rgba(255, 255, 255, 1)"></rect>
        <path d="M228.808,470.102C321.058,471.313,413.953,442.049,464.68,364.989C520.632,279.991,540.664,166.085,485.021,80.884C432.754,0.852,324.305,-0.317,228.808,3.819C142.738,7.547,54.516,28.789,8.351,101.527C-40.937,179.185,-43.79,279.998,3.424,358.934C49.512,435.987,139.032,468.924,228.808,470.102" fill="rgba(0, 145, 255, 0.4)" class="triangle-float3"></path>
        <path d="M112.123,292.359C173.009,292.519,219.608,244.479,249.411,191.386C278.467,139.625,293.34,75.994,261.809,25.702C231.656,-22.393,168.791,-30.917,112.123,-27.59C62.075,-24.651,16.592,-0.889,-9.928,41.657C-38.213,87.035,-47.327,142.592,-23.922,190.668C2.64,245.228,51.441,292.2,112.123,292.359" fill="rgba(0, 145, 255, 0.4)" class="triangle-float3"></path>
        <path d="M83.047,223.708C133.276,222.638,182.367,198.295,204.799,153.341C225.426,112.005,204.141,66.47,181.642,26.122C158.282,-15.77,131.012,-64.795,83.047,-65C34.898,-65.206,7.317,-16.272,-17.023,25.272C-41.768,67.506,-70.075,115.021,-48.035,158.727C-24.499,205.398,30.789,224.821,83.047,223.708" fill="rgba(0, 145, 255, 0.4)" class="triangle-float1"></path>
        <path d="M1991.401,589.768C2100.606,594.462,2202.078,535.201,2259.362,442.108C2319.648,344.137,2342.196,217.548,2279.987,120.786C2221.259,29.438,2099.985,23.557,1991.401,25.311C1887.016,26.998,1771.165,39.699,1718.527,129.857C1665.598,220.514,1707.011,330.385,1760.577,420.667C1812.74,508.584,1889.268,585.378,1991.401,589.768" fill="rgba(0, 145, 255, 0.4)" class="triangle-float3"></path>
        <path d="M1784.387,200.314C1827.74,198.496,1866.9,178.036,1890.841,141.848C1917.914,100.926,1935.757,49.614,1912.764,6.268C1888.666,-39.161,1835.81,-59.33,1784.387,-58.834C1733.894,-58.347,1685.745,-34.87,1660.232,8.706C1634.46,52.725,1633.516,108.67,1661.254,151.478C1686.989,191.194,1737.104,202.297,1784.387,200.314" fill="rgba(0, 145, 255, 0.4)" class="triangle-float1"></path>
        <path d="M1850.09,358.401C1921.647,361.174,1980.605,303.847,2011.143,239.074C2037.65,182.85,2019.264,120.189,1987.623,66.686C1956.705,14.405,1910.829,-33.045,1850.09,-33.255C1789.07,-33.466,1739.903,12.041,1710.901,65.729C1683.452,116.542,1684.496,175.221,1709.3,227.376C1738.811,289.428,1781.43,355.74,1850.09,358.401" fill="rgba(0, 145, 255, 0.4)" class="triangle-float1"></path>
        <path d="M212.545,1356.181C304.036,1355.629,359.809,1267.214,405.756,1188.095C451.995,1108.474,502.413,1015.505,456.852,935.494C411.022,855.012,304.842,841.117,212.545,848.795C134.261,855.307,69.055,902.995,29.772,971.021C-9.517,1039.059,-18.432,1119.473,15.251,1190.453C54.716,1273.618,120.493,1356.737,212.545,1356.181" fill="rgba(0, 145, 255, 0.4)" class="triangle-float2"></path>
        <path d="M62.746,1059.485C106.686,1060.981,136.411,1020.043,158.258,981.89C179.925,944.052,197.67,899.191,176.296,861.187C154.629,822.661,106.947,812.018,62.746,812.064C18.645,812.11,-30.097,822.271,-50.398,861.422C-69.766,898.774,-42.999,939.214,-22.129,975.748C-1,1012.734,20.175,1058.036,62.746,1059.485" fill="rgba(0, 145, 255, 0.4)" class="triangle-float3"></path>
        <path d="M112.323,1115.399C161.775,1114.305,205.933,1087.469,231.675,1045.231C258.61,1001.036,267.569,946.425,243.104,900.816C217.38,852.86,166.68,825.34,112.323,822.724C52.575,819.849,-12.812,835.009,-42.244,887.084C-71.363,938.604,-49.716,1001.716,-16.54,1050.721C12.338,1093.377,60.824,1116.538,112.323,1115.399" fill="rgba(0, 145, 255, 0.4)" class="triangle-float1"></path>
        <path d="M1735.771,990.437C1771.096,991.99,1807.666,978.101,1824.778,947.159C1841.472,916.973,1831.084,880.544,1812.682,851.367C1795.667,824.39,1767.651,805.048,1735.771,806.039C1705.356,806.984,1681.805,829.476,1666.718,855.903C1651.785,882.061,1645.605,913.092,1659.359,939.888C1674.306,969.008,1703.071,989,1735.771,990.437" fill="rgba(0, 145, 255, 0.4)" class="triangle-float2"></path>
        <path d="M1830.989,1157.353C1890.336,1156.515,1946.755,1126.322,1974.662,1073.939C2001.142,1024.236,1984.783,967.15,1958.993,917.085C1930.056,860.912,1894.144,797.065,1830.989,795.037C1765.809,792.944,1718.581,850.831,1687.906,908.38C1659.355,961.944,1649.87,1025.471,1680.114,1078.097C1710.452,1130.887,1770.108,1158.212,1830.989,1157.353" fill="rgba(0, 145, 255, 0.4)" class="triangle-float3"></path>
        <path d="M1755.504,1017.518C1789.973,1015.487,1816.452,990.563,1833.612,960.6C1850.645,930.859,1857.585,896.024,1842.79,865.109C1825.752,829.508,1794.959,798.41,1755.504,797.392C1714.657,796.338,1679.814,824.63,1660.05,860.393C1640.962,894.932,1639.155,937.122,1659.644,970.848C1679.421,1003.402,1717.48,1019.758,1755.504,1017.518" fill="rgba(0, 145, 255, 0.4)" class="triangle-float3"></path>
    </g>
    <defs>
        <mask id="SvgjsMask1031">
            <rect width="1920" height="1080" fill="#ffffff"></rect>
        </mask>
        <style>
            @keyframes float1 {
                0%{transform: translate(0, 0)}
                50%{transform: translate(-10px, 0)}
                100%{transform: translate(0, 0)}
            }

            .triangle-float1 {
                animation: float1 5s infinite;
            }

            @keyframes float2 {
                0%{transform: translate(0, 0)}
                50%{transform: translate(-5px, -5px)}
                100%{transform: translate(0, 0)}
            }

            .triangle-float2 {
                animation: float2 4s infinite;
            }

            @keyframes float3 {
                0%{transform: translate(0, 0)}
                50%{transform: translate(0, -10px)}
                100%{transform: translate(0, 0)}
            }

            .triangle-float3 {
                animation: float3 6s infinite;
            }
        </style>
    </defs>
</svg>