<svg xmlns="http://www.w3.org/2000/svg" version="1.1" xmlns:xlink="http://www.w3.org/1999/xlink" xmlns:svgjs="http://svgjs.com/svgjs" width="1920" height="1080" preserveAspectRatio="none" viewBox="0 0 1920 1080">
    <g mask="url(&quot;#SvgjsMask2281&quot;)" fill="none">
        <rect width="1920" height="1080" x="0" y="0" fill="url(#SvgjsLinearGradient2282)"></rect>
        <use xlink:href="#SvgjsG2289" transform="translate(0, 0)" fill="rgba(33, 150, 243, 1)"></use>
        <use xlink:href="#SvgjsG2289" transform="translate(1440, 0)" fill="rgba(33, 150, 243, 1)"></use>
    </g>
    <defs>
        <mask id="SvgjsMask2281">
            <rect width="1920" height="1080" fill="#ffffff"></rect>
        </mask>
        <linearGradient x1="50%" y1="100%" x2="50%" y2="0%" gradientUnits="userSpaceOnUse" id="SvgjsLinearGradient2282">
            <stop stop-color="rgba(183, 185, 186, 1)" offset="0"></stop>
            <stop stop-color="rgba(255, 255, 255, 1)" offset="1"></stop>
        </linearGradient>
        <g id="SvgjsG2287">
            <path d="M9.29 3.32a1.36 1.36 0 1 0 2.14-1.67 1.36 1.36 0 0 0-2.14 1.67"></path>
            <path d="M0.36 3.95c0.2 0.25 0.44 0.45 0.7 0.58a2.2 2.2 0 0 1 1.15 1.47 2.21 2.21 0 0 0 1.11 1.42 2.19 2.19 0 0 1 1.14 1.47 2.22 2.22 0 0 0 1.11 1.42 2.2 2.2 0 0 1 1.15 1.46 2.22 2.22 0 0 0 1.11 1.42 2.24 2.24 0 0 1 1.11 1.33A2.48 2.48 0 0 0 11.08 10.53l-0.19-0.2c-1.16 0.52-1.96-0.42-1.96-0.42L5.45 5.46l-0.07-0.54 2.2-0.28 0.2 1.42c0.08 0.89 0.85 0.77 0.86 0.78L11.01 6.57c1.03-0.12 0.88-1.47-0.15-1.35l-1.66 0.2-0.38-2.35c-0.25-1.63-1.68-1.29-1.68-1.29L3.93 2.21c-0.63 0.14-0.67 0.49-0.67 0.49L2.76 2.06l-2.41 1.89z m6.88 13.19c-0.2-0.25-0.33-0.54-0.4-0.82a2.19 2.19 0 0 0-1.14-1.47 2.22 2.22 0 0 1-1.12-1.42 2.2 2.2 0 0 0-1.14-1.46 2.21 2.21 0 0 1-1.11-1.43 2.19 2.19 0 0 0-1.14-1.46 2.21 2.21 0 0 1-1.12-1.42 2.18 2.18 0 0 0-1.14-1.46 2.22 2.22 0 0 1-0.7-0.59l1.06-0.83c0.2 0.25 0.44 0.45 0.71 0.59a2.2 2.2 0 0 1 1.14 1.46 2.21 2.21 0 0 0 1.11 1.42 2.21 2.21 0 0 1 1.15 1.47 2.18 2.18 0 0 0 1.11 1.42 2.22 2.22 0 0 1 0.73 0.6c0.2 0.26 0.34 0.56 0.41 0.86a2.19 2.19 0 0 0 1.12 1.43 2.21 2.21 0 0 1 1.14 1.46c0.07 0.29 0.2 0.58 0.4 0.83l-1.07 0.83z"></path>
        </g>
        <g id="SvgjsG2286">
            <path d="M5.45 2.96a1.47 1.47 0 0 0-0.61 0.28l-2.72 2.2L-0.68 6.09a0.79 0.79 0 0 0-0.55 1.17 0.78 0.78 0 0 0 0.81 0.38l3.06-0.7a0.81 0.81 0 0 0 0.29-0.14l1.7-1.34 0.56 2.16-1.47 1.56a0.79 0.79 0 0 0 1.17 1.05L6.65 8.35a0.8 0.8 0 0 0 0.17-0.7L6.34 5.71l2.31-0.33-0.22 0.91a0.6 0.6 0 0 0 0.01 0.27l0.85 2.12a0.62 0.62 0 0 0 0.72 0.33 0.62 0.62 0 0 0 0.43-0.76l-0.01-0.03-0.73-1.86 0.47-2.19a1.43 1.43 0 0 0-1.57-1.65l-3.15 0.44z"></path>
            <path d="M5.38 11.02l-0.92 0.53-3.05-2.41-0.49 0.43 5.68 7.27c0.2 0.26 0.57 0.3 0.83 0.1L17.22 9.28 16.67 8.1l-3.02 1.44-1.15-0.65L9.46 9.9l-1.18 2.23-0.88 0.32-2.02-1.43zM10.57 3.7A1.18 1.18 0 1 0 12.42 2.25a1.18 1.18 0 0 0-1.85 1.45M8.98 1.97a0.34 0.34 0 0 0 0.29-0.38l-0.09-0.65a0.34 0.34 0 0 0-0.38-0.29L5.33 1.13a0.34 0.34 0 0 0-0.29 0.38l0.09 0.66c0.02 0.18 0.19 0.31 0.38 0.28l3.47-0.48z"></path>
        </g>
        <g id="SvgjsG2283">
            <path d="M13.74 4.57C14.23 3.93 14.25 3.01 13.73 2.34 13.11 1.55 11.97 1.4 11.18 2.02c-0.13 0.1-0.24 0.22-0.34 0.35l0.45 0.57c-0.07 0.12-0.09 0.21-0.09 0.21a1.22 1.22 0 0 0 0.21 1.11 1.22 1.22 0 0 0 1.71 0.21c0.12-0.1 0.26-0.15 0.33-0.28l0.29 0.38 0 0z m-8.58 6.64c-0.27-0.03-0.55-0.15-0.74-0.38L7.54 8.39l2.31 1.67-0.65 1.37L5.16 11.21z"></path>
            <path d="M10.87 3.83a0.98 0.98 0 0 0-0.19-0.78c-0.19-0.25-0.48-0.38-0.77-0.38l-3.95 0.33a0.97 0.97 0 0 0-0.48 0.2 0.98 0.98 0 0 0-0.38 0.85l0.52 3.29L3.45 9.03A0.7 0.7 0 0 0 3.33 10.02c0.24 0.3 0.68 0.36 0.99 0.12L7.03 8.03s0.49-0.26 0.34-0.94l-0.37-2.02 2.41-0.2-0.44 1.23c-0.09 0.25-0.04 0.45 0.07 0.59l1.12 1.42c0.45 0.58 1.2-0.01 0.75-0.59L10 6.37 10.87 3.83z m1.36 9.07c0 0.04-0.02 0.08-0.05 0.1-0.07 0.05-0.17 0.04-0.23-0.03-0.01-0.02-0.02-0.03-0.03-0.05-0.09-0.33-0.14-0.53-0.36-0.82-0.15-0.19-0.4-0.37-0.83-0.47l0.3-0.63c0.34 0.24 0.62 0.43 0.83 0.69 0.33 0.43 0.42 0.72 0.37 1.21z"></path>
            <path d="M4.4 3.64l0.55 3.45-0.53 0.42L3.79 3.58c-0.05-0.28-0.2-0.59-0.35-0.79-0.22-0.28-0.41-0.39-0.71-0.55-0.02-0.01-0.03-0.02-0.04-0.04A0.16 0.16 0 0 1 2.71 1.98c0.04-0.03 0.08-0.04 0.12-0.03 0.48 0.07 0.79 0.29 1.12 0.71 0.17 0.22 0.35 0.5 0.45 0.99z m-4.72 4.05c0.61 0.78 1.75 0.92 2.53 0.31S3.14 6.25 2.53 5.46c-0.61-0.78-1.75-0.92-2.54-0.3-0.79 0.61-0.93 1.75-0.31 2.53zM-0.5 4.53c1.13-0.88 2.77-0.68 3.66 0.44 0.89 1.13 0.68 2.77-0.45 3.66-1.13 0.88-2.77 0.69-3.66-0.45C-1.83 7.05-1.63 5.41-0.5 4.53z m6.81 11.64A1.8 1.8 0 0 0 8.84 16.48 1.8 1.8 0 0 0 9.15 13.95c-0.61-0.78-1.74-0.92-2.53-0.31-0.79 0.61-0.93 1.75-0.31 2.53z m-0.18-3.16c1.13-0.88 2.77-0.69 3.65 0.44C10.67 14.59 10.47 16.22 9.33 17.11s-2.77 0.68-3.65-0.45c-0.88-1.13-0.68-2.77 0.45-3.65z m3.59-0.24L10.94 10.22a0.98 0.98 0 0 0-0.13-0.99l-0.51-0.65a0.29 0.29 0 0 0-0.41-0.05c-0.13 0.1-0.15 0.28-0.05 0.41l0.51 0.65c0.09 0.11 0.11 0.29 0.04 0.42l-1.18 2.43 0.51 0.33z"></path>
        </g>
        <g id="SvgjsG2285">
            <path d="M0.17 8.07c0.9 1.15 2.56 1.35 3.7 0.46 1.15-0.9 1.35-2.55 0.46-3.7-0.89-1.14-2.55-1.35-3.71-0.46-1.15 0.9-1.35 2.56-0.46 3.71zM0.26 3.9c1.41-1.1 3.44-0.85 4.54 0.56 1.1 1.41 0.85 3.44-0.56 4.54-1.41 1.1-3.44 0.85-4.54-0.56C-1.4 7.04-1.15 5 0.26 3.9z m5.75 11.7c0.89 1.14 2.55 1.35 3.7 0.45 1.15-0.9 1.35-2.55 0.46-3.7-0.9-1.15-2.56-1.35-3.71-0.45-1.15 0.9-1.35 2.56-0.45 3.7zM6.09 11.42c1.41-1.1 3.44-0.85 4.55 0.56 1.1 1.41 0.85 3.44-0.56 4.55s-3.44 0.85-4.54-0.56c-1.1-1.41-0.85-3.44 0.55-4.55z m6.23-4.85c0.41 0.53 1.18 0.63 1.71 0.21S14.65 5.6 14.24 5.07s-1.18-0.62-1.71-0.21-0.62 1.18-0.21 1.71z"></path>
            <path d="M10.03 8.43c-0.11-0.14-0.16-0.34-0.07-0.59l0.48-1.38-2.27-0.3 0.3 1.69c0.15 0.67-0.34 0.94-0.34 0.93l-2.7 2.11c-0.31 0.24-0.75 0.19-0.98-0.12s-0.18-0.75 0.12-0.98L6.73 8.1l-0.47-2.96a1.02 1.02 0 0 1 0.38-0.97 1 1 0 0 1 0.7-0.21l3.61 0.44c0.48 0.03 0.71 0.42 0.72 0.42 0.33 0.42 0.14 0.94 0.13 0.93l-0.83 2.35 1.26 1.6c0.45 0.57-0.3 1.16-0.75 0.58l-1.45-1.85z"></path>
        </g>
        <g id="SvgjsG2284">
            <path d="M6.06 18.51c-0.2-0.26-0.34-0.56-0.41-0.86a2.26 2.26 0 0 0-0.42-0.88c-0.21-0.27-0.47-0.48-0.76-0.62A2.25 2.25 0 0 1 3.74 15.54c-0.2-0.26-0.34-0.56-0.41-0.86-0.07-0.32-0.21-0.62-0.42-0.88-0.21-0.27-0.47-0.48-0.76-0.63A2.25 2.25 0 0 1 1.42 12.57c-0.2-0.26-0.34-0.56-0.42-0.86a2.24 2.24 0 0 0-0.41-0.89c-0.21-0.27-0.47-0.48-0.76-0.62A2.25 2.25 0 0 1-0.9 9.6c-0.2-0.26-0.34-0.56-0.42-0.86a2.24 2.24 0 0 0-0.41-0.89c-0.21-0.27-0.47-0.48-0.76-0.62A2.27 2.27 0 0 1-3.23 6.62l1.11-0.87c0.2 0.26 0.46 0.47 0.74 0.61a2.3 2.3 0 0 1 0.75 0.63c0.21 0.27 0.35 0.57 0.42 0.88a2.24 2.24 0 0 0 0.42 0.86 2.22 2.22 0 0 0 0.73 0.6 2.31 2.31 0 0 1 0.76 0.63c0.21 0.27 0.35 0.57 0.42 0.88a2.24 2.24 0 0 0 0.41 0.86c0.2 0.26 0.46 0.46 0.73 0.6 0.28 0.15 0.55 0.35 0.76 0.63s0.35 0.57 0.42 0.88a2.21 2.21 0 0 0 0.41 0.86c0.2 0.26 0.46 0.46 0.73 0.6 0.28 0.15 0.55 0.35 0.76 0.63 0.21 0.27 0.35 0.57 0.42 0.88a2.21 2.21 0 0 0 0.41 0.86l-1.11 0.87zM4.84 5.73c0.43 0.55 1.24 0.65 1.8 0.21 0.56-0.44 0.66-1.24 0.23-1.79-0.43-0.55-1.23-0.65-1.8-0.21s-0.66 1.24-0.23 1.79m-3.39 2.89c-0.39 0.05-0.76-0.22-0.81-0.62-0.05-0.39 0.23-0.76 0.62-0.81L7.13 6.35a1.18 1.18 0 0 1 0.64 0.08l4.17 1.56L17.02 7.28C17.51 7.21 17.96 7.55 18.03 8.04c0.06 0.49-0.28 0.94-0.77 1.01L11.17 9.89a1.16 1.16 0 0 1-0.64-0.08L5.56 8.02 1.45 8.62z"></path>
        </g>
        <g id="SvgjsG2288">
            <path d="M14.16 11.65A1.33 1.33 0 0 0 16.03 11.88c0.58-0.45 0.68-1.29 0.22-1.87-0.45-0.58-1.29-0.68-1.86-0.23s-0.68 1.29-0.23 1.87zM6.2 17.04a1.35 1.35 0 0 0 1.51 1.17l-0.07-0.54c-0.44 0.06-0.85-0.26-0.9-0.7L4.6 0.85 4.06 0.93 6.2 17.04z"></path>
            <path d="M14.64 4c-0.07-0.97-0.91-1.7-1.89-1.63-0.54 0.04-1.03 0.32-1.29 0.71l-1.83 2.61-2.44-1.66a1.09 1.09 0 0 0-1.1 0.01c-0.51 0.31-0.55 0.9-0.24 1.41 0.07 0.12 0.16 0.16 0.26 0.24l3.36 2.25c0.25 0.16 0.66 0.23 0.87 0.1 0.15-0.09 0.3-0.14 0.37-0.24l1.28-1.74 0.34 2.66-1.4 1.45c-0.26 0.23-0.36 0.51-0.31 0.82L11.09 14.45a0.68 0.68 0 0 0 0.78 0.56c0.37-0.06 0.63-0.42 0.57-0.78l-0.37-2.74 2.64-2.41a1.45 1.45 0 0 0 0.45-1.13L14.64 4z"></path>
        </g>
        <g id="SvgjsG2289">
            <use xlink:href="#SvgjsG2283" transform="translate(0, 0) scale(3)" fill="rgba(33, 150, 243, 1)"></use>
            <use xlink:href="#SvgjsG2284" transform="translate(0, 144) scale(3)" fill="rgba(33, 150, 243, 1)"></use>
            <use xlink:href="#SvgjsG2285" transform="translate(0, 288) scale(3)" fill="rgba(33, 150, 243, 1)"></use>
            <use xlink:href="#SvgjsG2283" transform="translate(0, 432) scale(3)" fill="rgba(33, 150, 243, 1)"></use>
            <use xlink:href="#SvgjsG2285" transform="translate(0, 576) scale(3)" fill="rgba(33, 150, 243, 1)"></use>
            <use xlink:href="#SvgjsG2285" transform="translate(0, 720) scale(3)" fill="rgba(33, 150, 243, 1)"></use>
            <use xlink:href="#SvgjsG2284" transform="translate(0, 864) scale(3)" fill="rgba(33, 150, 243, 1)"></use>
            <use xlink:href="#SvgjsG2286" transform="translate(0, 1008) scale(3)" fill="rgba(33, 150, 243, 1)"></use>
            <use xlink:href="#SvgjsG2287" transform="translate(144, 0) scale(3)" fill="rgba(33, 150, 243, 1)"></use>
            <use xlink:href="#SvgjsG2286" transform="translate(144, 144) scale(3)" fill="rgba(33, 150, 243, 1)"></use>
            <use xlink:href="#SvgjsG2284" transform="translate(144, 288) scale(3)" fill="rgba(33, 150, 243, 1)"></use>
            <use xlink:href="#SvgjsG2287" transform="translate(144, 432) scale(3)" fill="rgba(33, 150, 243, 1)"></use>
            <use xlink:href="#SvgjsG2287" transform="translate(144, 576) scale(3)" fill="rgba(33, 150, 243, 1)"></use>
            <use xlink:href="#SvgjsG2284" transform="translate(144, 720) scale(3)" fill="rgba(33, 150, 243, 1)"></use>
            <use xlink:href="#SvgjsG2286" transform="translate(144, 864) scale(3)" fill="rgba(33, 150, 243, 1)"></use>
            <use xlink:href="#SvgjsG2287" transform="translate(144, 1008) scale(3)" fill="rgba(33, 150, 243, 1)"></use>
            <use xlink:href="#SvgjsG2284" transform="translate(288, 0) scale(3)" fill="rgba(33, 150, 243, 1)"></use>
            <use xlink:href="#SvgjsG2284" transform="translate(288, 144) scale(3)" fill="rgba(33, 150, 243, 1)"></use>
            <use xlink:href="#SvgjsG2288" transform="translate(288, 288) scale(3)" fill="rgba(33, 150, 243, 1)"></use>
            <use xlink:href="#SvgjsG2285" transform="translate(288, 432) scale(3)" fill="rgba(33, 150, 243, 1)"></use>
            <use xlink:href="#SvgjsG2283" transform="translate(288, 576) scale(3)" fill="rgba(33, 150, 243, 1)"></use>
            <use xlink:href="#SvgjsG2285" transform="translate(288, 720) scale(3)" fill="rgba(33, 150, 243, 1)"></use>
            <use xlink:href="#SvgjsG2286" transform="translate(288, 864) scale(3)" fill="rgba(33, 150, 243, 1)"></use>
            <use xlink:href="#SvgjsG2286" transform="translate(288, 1008) scale(3)" fill="rgba(33, 150, 243, 1)"></use>
            <use xlink:href="#SvgjsG2285" transform="translate(432, 0) scale(3)" fill="rgba(33, 150, 243, 1)"></use>
            <use xlink:href="#SvgjsG2285" transform="translate(432, 144) scale(3)" fill="rgba(33, 150, 243, 1)"></use>
            <use xlink:href="#SvgjsG2285" transform="translate(432, 288) scale(3)" fill="rgba(33, 150, 243, 1)"></use>
            <use xlink:href="#SvgjsG2284" transform="translate(432, 432) scale(3)" fill="rgba(33, 150, 243, 1)"></use>
            <use xlink:href="#SvgjsG2283" transform="translate(432, 576) scale(3)" fill="rgba(33, 150, 243, 1)"></use>
            <use xlink:href="#SvgjsG2283" transform="translate(432, 720) scale(3)" fill="rgba(33, 150, 243, 1)"></use>
            <use xlink:href="#SvgjsG2288" transform="translate(432, 864) scale(3)" fill="rgba(33, 150, 243, 1)"></use>
            <use xlink:href="#SvgjsG2288" transform="translate(432, 1008) scale(3)" fill="rgba(33, 150, 243, 1)"></use>
            <use xlink:href="#SvgjsG2285" transform="translate(576, 0) scale(3)" fill="rgba(33, 150, 243, 1)"></use>
            <use xlink:href="#SvgjsG2284" transform="translate(576, 144) scale(3)" fill="rgba(33, 150, 243, 1)"></use>
            <use xlink:href="#SvgjsG2286" transform="translate(576, 288) scale(3)" fill="rgba(33, 150, 243, 1)"></use>
            <use xlink:href="#SvgjsG2285" transform="translate(576, 432) scale(3)" fill="rgba(33, 150, 243, 1)"></use>
            <use xlink:href="#SvgjsG2287" transform="translate(576, 576) scale(3)" fill="rgba(33, 150, 243, 1)"></use>
            <use xlink:href="#SvgjsG2287" transform="translate(576, 720) scale(3)" fill="rgba(33, 150, 243, 1)"></use>
            <use xlink:href="#SvgjsG2288" transform="translate(576, 864) scale(3)" fill="rgba(33, 150, 243, 1)"></use>
            <use xlink:href="#SvgjsG2284" transform="translate(576, 1008) scale(3)" fill="rgba(33, 150, 243, 1)"></use>
            <use xlink:href="#SvgjsG2286" transform="translate(720, 0) scale(3)" fill="rgba(33, 150, 243, 1)"></use>
            <use xlink:href="#SvgjsG2286" transform="translate(720, 144) scale(3)" fill="rgba(33, 150, 243, 1)"></use>
            <use xlink:href="#SvgjsG2283" transform="translate(720, 288) scale(3)" fill="rgba(33, 150, 243, 1)"></use>
            <use xlink:href="#SvgjsG2288" transform="translate(720, 432) scale(3)" fill="rgba(33, 150, 243, 1)"></use>
            <use xlink:href="#SvgjsG2283" transform="translate(720, 576) scale(3)" fill="rgba(33, 150, 243, 1)"></use>
            <use xlink:href="#SvgjsG2285" transform="translate(720, 720) scale(3)" fill="rgba(33, 150, 243, 1)"></use>
            <use xlink:href="#SvgjsG2287" transform="translate(720, 864) scale(3)" fill="rgba(33, 150, 243, 1)"></use>
            <use xlink:href="#SvgjsG2284" transform="translate(720, 1008) scale(3)" fill="rgba(33, 150, 243, 1)"></use>
            <use xlink:href="#SvgjsG2286" transform="translate(864, 0) scale(3)" fill="rgba(33, 150, 243, 1)"></use>
            <use xlink:href="#SvgjsG2284" transform="translate(864, 144) scale(3)" fill="rgba(33, 150, 243, 1)"></use>
            <use xlink:href="#SvgjsG2287" transform="translate(864, 288) scale(3)" fill="rgba(33, 150, 243, 1)"></use>
            <use xlink:href="#SvgjsG2284" transform="translate(864, 432) scale(3)" fill="rgba(33, 150, 243, 1)"></use>
            <use xlink:href="#SvgjsG2288" transform="translate(864, 576) scale(3)" fill="rgba(33, 150, 243, 1)"></use>
            <use xlink:href="#SvgjsG2288" transform="translate(864, 720) scale(3)" fill="rgba(33, 150, 243, 1)"></use>
            <use xlink:href="#SvgjsG2284" transform="translate(864, 864) scale(3)" fill="rgba(33, 150, 243, 1)"></use>
            <use xlink:href="#SvgjsG2286" transform="translate(864, 1008) scale(3)" fill="rgba(33, 150, 243, 1)"></use>
            <use xlink:href="#SvgjsG2283" transform="translate(1008, 0) scale(3)" fill="rgba(33, 150, 243, 1)"></use>
            <use xlink:href="#SvgjsG2284" transform="translate(1008, 144) scale(3)" fill="rgba(33, 150, 243, 1)"></use>
            <use xlink:href="#SvgjsG2288" transform="translate(1008, 288) scale(3)" fill="rgba(33, 150, 243, 1)"></use>
            <use xlink:href="#SvgjsG2287" transform="translate(1008, 432) scale(3)" fill="rgba(33, 150, 243, 1)"></use>
            <use xlink:href="#SvgjsG2287" transform="translate(1008, 576) scale(3)" fill="rgba(33, 150, 243, 1)"></use>
            <use xlink:href="#SvgjsG2285" transform="translate(1008, 720) scale(3)" fill="rgba(33, 150, 243, 1)"></use>
            <use xlink:href="#SvgjsG2286" transform="translate(1008, 864) scale(3)" fill="rgba(33, 150, 243, 1)"></use>
            <use xlink:href="#SvgjsG2288" transform="translate(1008, 1008) scale(3)" fill="rgba(33, 150, 243, 1)"></use>
            <use xlink:href="#SvgjsG2287" transform="translate(1152, 0) scale(3)" fill="rgba(33, 150, 243, 1)"></use>
            <use xlink:href="#SvgjsG2284" transform="translate(1152, 144) scale(3)" fill="rgba(33, 150, 243, 1)"></use>
            <use xlink:href="#SvgjsG2283" transform="translate(1152, 288) scale(3)" fill="rgba(33, 150, 243, 1)"></use>
            <use xlink:href="#SvgjsG2287" transform="translate(1152, 432) scale(3)" fill="rgba(33, 150, 243, 1)"></use>
            <use xlink:href="#SvgjsG2287" transform="translate(1152, 576) scale(3)" fill="rgba(33, 150, 243, 1)"></use>
            <use xlink:href="#SvgjsG2283" transform="translate(1152, 720) scale(3)" fill="rgba(33, 150, 243, 1)"></use>
            <use xlink:href="#SvgjsG2284" transform="translate(1152, 864) scale(3)" fill="rgba(33, 150, 243, 1)"></use>
            <use xlink:href="#SvgjsG2285" transform="translate(1152, 1008) scale(3)" fill="rgba(33, 150, 243, 1)"></use>
            <use xlink:href="#SvgjsG2288" transform="translate(1296, 0) scale(3)" fill="rgba(33, 150, 243, 1)"></use>
            <use xlink:href="#SvgjsG2283" transform="translate(1296, 144) scale(3)" fill="rgba(33, 150, 243, 1)"></use>
            <use xlink:href="#SvgjsG2287" transform="translate(1296, 288) scale(3)" fill="rgba(33, 150, 243, 1)"></use>
            <use xlink:href="#SvgjsG2286" transform="translate(1296, 432) scale(3)" fill="rgba(33, 150, 243, 1)"></use>
            <use xlink:href="#SvgjsG2287" transform="translate(1296, 576) scale(3)" fill="rgba(33, 150, 243, 1)"></use>
            <use xlink:href="#SvgjsG2288" transform="translate(1296, 720) scale(3)" fill="rgba(33, 150, 243, 1)"></use>
            <use xlink:href="#SvgjsG2288" transform="translate(1296, 864) scale(3)" fill="rgba(33, 150, 243, 1)"></use>
            <use xlink:href="#SvgjsG2288" transform="translate(1296, 1008) scale(3)" fill="rgba(33, 150, 243, 1)"></use>
        </g>
    </defs>
</svg>