<svg xmlns="http://www.w3.org/2000/svg" version="1.1" xmlns:xlink="http://www.w3.org/1999/xlink" xmlns:svgjs="http://svgjs.com/svgjs" width="1440" height="560" preserveAspectRatio="none" viewBox="0 0 1440 560">
    <g mask="url(&quot;#SvgjsMask1015&quot;)" fill="none">
        <path d="M587 166L414 -7" stroke-width="10" stroke="url(#SvgjsLinearGradient1016)" stroke-linecap="round" class="TopLeft"></path>
        <path d="M1301 471L1497 667" stroke-width="10" stroke="url(#SvgjsLinearGradient1016)" stroke-linecap="round" class="TopLeft"></path>
        <path d="M837 407L1093 663" stroke-width="6" stroke="url(#SvgjsLinearGradient1017)" stroke-linecap="round" class="BottomRight"></path>
        <path d="M212 39L-39 -212" stroke-width="8" stroke="url(#SvgjsLinearGradient1016)" stroke-linecap="round" class="TopLeft"></path>
        <path d="M125 265L508 648" stroke-width="6" stroke="url(#SvgjsLinearGradient1017)" stroke-linecap="round" class="BottomRight"></path>
        <path d="M641 97L846 302" stroke-width="6" stroke="url(#SvgjsLinearGradient1017)" stroke-linecap="round" class="BottomRight"></path>
        <path d="M34 533L-220 279" stroke-width="10" stroke="url(#SvgjsLinearGradient1017)" stroke-linecap="round" class="BottomRight"></path>
        <path d="M1280 100L1030 -150" stroke-width="8" stroke="url(#SvgjsLinearGradient1017)" stroke-linecap="round" class="BottomRight"></path>
        <path d="M17 223L-342 -136" stroke-width="10" stroke="url(#SvgjsLinearGradient1016)" stroke-linecap="round" class="TopLeft"></path>
        <path d="M911 515L658 262" stroke-width="6" stroke="url(#SvgjsLinearGradient1017)" stroke-linecap="round" class="BottomRight"></path>
        <path d="M1278 331L989 42" stroke-width="10" stroke="url(#SvgjsLinearGradient1016)" stroke-linecap="round" class="TopLeft"></path>
        <path d="M21 259L359 597" stroke-width="8" stroke="url(#SvgjsLinearGradient1017)" stroke-linecap="round" class="BottomRight"></path>
        <path d="M794 389L980 575" stroke-width="8" stroke="url(#SvgjsLinearGradient1016)" stroke-linecap="round" class="TopLeft"></path>
        <path d="M1008 518L1307 817" stroke-width="8" stroke="url(#SvgjsLinearGradient1016)" stroke-linecap="round" class="TopLeft"></path>
        <path d="M165 271L-248 -142" stroke-width="6" stroke="url(#SvgjsLinearGradient1017)" stroke-linecap="round" class="BottomRight"></path>
        <path d="M1192 486L975 269" stroke-width="8" stroke="url(#SvgjsLinearGradient1016)" stroke-linecap="round" class="TopLeft"></path>
        <path d="M204 23L587 406" stroke-width="6" stroke="url(#SvgjsLinearGradient1017)" stroke-linecap="round" class="BottomRight"></path>
        <path d="M1417 119L1226 -72" stroke-width="10" stroke="url(#SvgjsLinearGradient1017)" stroke-linecap="round" class="BottomRight"></path>
        <path d="M245 101L427 283" stroke-width="6" stroke="url(#SvgjsLinearGradient1016)" stroke-linecap="round" class="TopLeft"></path>
        <path d="M263 525L673 935" stroke-width="8" stroke="url(#SvgjsLinearGradient1017)" stroke-linecap="round" class="BottomRight"></path>
        <path d="M284 534L83 333" stroke-width="6" stroke="url(#SvgjsLinearGradient1017)" stroke-linecap="round" class="BottomRight"></path>
        <path d="M1091 303L1286 498" stroke-width="10" stroke="url(#SvgjsLinearGradient1017)" stroke-linecap="round" class="BottomRight"></path>
        <path d="M871 273L1222 624" stroke-width="10" stroke="url(#SvgjsLinearGradient1016)" stroke-linecap="round" class="TopLeft"></path>
        <path d="M480 200L207 -73" stroke-width="10" stroke="url(#SvgjsLinearGradient1016)" stroke-linecap="round" class="TopLeft"></path>
        <path d="M753 176L526 -51" stroke-width="6" stroke="url(#SvgjsLinearGradient1017)" stroke-linecap="round" class="BottomRight"></path>
        <path d="M121 375L270 524" stroke-width="10" stroke="url(#SvgjsLinearGradient1016)" stroke-linecap="round" class="TopLeft"></path>
        <path d="M993 280L615 -98" stroke-width="6" stroke="url(#SvgjsLinearGradient1017)" stroke-linecap="round" class="BottomRight"></path>
        <path d="M1210 99L826 -285" stroke-width="6" stroke="url(#SvgjsLinearGradient1017)" stroke-linecap="round" class="BottomRight"></path>
        <path d="M404 521L32 149" stroke-width="10" stroke="url(#SvgjsLinearGradient1016)" stroke-linecap="round" class="TopLeft"></path>
        <path d="M394 377L664 647" stroke-width="10" stroke="url(#SvgjsLinearGradient1017)" stroke-linecap="round" class="BottomRight"></path>
        <path d="M533 140L232 -161" stroke-width="8" stroke="url(#SvgjsLinearGradient1017)" stroke-linecap="round" class="BottomRight"></path>
        <path d="M988 320L1356 688" stroke-width="8" stroke="url(#SvgjsLinearGradient1017)" stroke-linecap="round" class="BottomRight"></path>
        <path d="M759 335L1001 577" stroke-width="8" stroke="url(#SvgjsLinearGradient1017)" stroke-linecap="round" class="BottomRight"></path>
        <path d="M1052 366L1238 552" stroke-width="8" stroke="url(#SvgjsLinearGradient1016)" stroke-linecap="round" class="TopLeft"></path>
        <path d="M168 516L-127 221" stroke-width="8" stroke="url(#SvgjsLinearGradient1016)" stroke-linecap="round" class="TopLeft"></path>
        <path d="M1070 94L742 -234" stroke-width="8" stroke="url(#SvgjsLinearGradient1017)" stroke-linecap="round" class="BottomRight"></path>
        <path d="M880 557L656 333" stroke-width="8" stroke="url(#SvgjsLinearGradient1016)" stroke-linecap="round" class="TopLeft"></path>
        <path d="M1421 396L1593 568" stroke-width="6" stroke="url(#SvgjsLinearGradient1016)" stroke-linecap="round" class="TopLeft"></path>
        <path d="M748 285L1124 661" stroke-width="8" stroke="url(#SvgjsLinearGradient1017)" stroke-linecap="round" class="BottomRight"></path>
    </g>
    <defs>
        <mask id="SvgjsMask1015">
            <rect width="1440" height="560" fill="#ffffff"></rect>
        </mask>
        <linearGradient x1="100%" y1="100%" x2="0%" y2="0%" id="SvgjsLinearGradient1016">
            <stop stop-color="rgba(33, 133, 214, 0)" offset="0"></stop>
            <stop stop-color="rgba(33, 133, 214, 1)" offset="1"></stop>
        </linearGradient>
        <linearGradient x1="0%" y1="0%" x2="100%" y2="100%" id="SvgjsLinearGradient1017">
            <stop stop-color="rgba(33, 133, 214, 0)" offset="0"></stop>
            <stop stop-color="rgba(33, 133, 214, 1)" offset="1"></stop>
        </linearGradient>
    </defs>
</svg>