<?xml version="1.0" standalone="no"?>
<svg xmlns="http://www.w3.org/2000/svg" viewBox="0 0 179.072 53" width="179.072" height="53"><rect fill="none" stroke="#3A96F3" stroke-width="3" width="176.072" height="50" x="1.5" y="1.5"></rect><g fill="#3A96F3" color="#3A96F3" transform="translate(12, 12.001) scale(0.29)"><svg width="100.0" height="100.0" x="0.0" y="0.0" viewBox="0 0 100 100"><path d="M80.7,10.9c-2.1,0-4.3,0.8-5.9,2.5L74,14.2l-6.6-6.6C65.6,5.8,63.4,5,61.2,5C59,5,56.7,5.8,55,7.5c-0.8,0.8-1.4,1.7-1.8,2.7  c-1.7-1.6-3.9-2.4-6-2.4c-2.2,0-4.5,0.8-6.2,2.5c-1.7,1.7-2.6,4-2.5,6.2c0,2.2,0.8,4.5,2.5,6.2l11.2,11.2l1.1,1.1L34.9,53.3  l-1.1-1.1L22.7,41c-1.7-1.7-4-2.6-6.2-2.5c-2.2,0-4.5,0.8-6.2,2.5c-1.7,1.7-2.5,3.9-2.5,6.2c0,2.2,0.8,4.3,2.4,6  c-1,0.4-1.9,1-2.7,1.8C5.8,56.7,5,59,5,61.2c0,2.2,0.8,4.5,2.5,6.2l6.6,6.6l-0.8,0.8c-1.6,1.6-2.5,3.8-2.5,5.9  c0,2.1,0.8,4.3,2.5,5.9c1.6,1.6,3.8,2.5,5.9,2.5c2.1,0,4.3-0.8,5.9-2.5l0.8-0.8l6.6,6.6c0,0,0,0,0,0c1.7,1.7,3.9,2.5,6.1,2.5  c2.2,0,4.5-0.8,6.2-2.5c0.8-0.8,1.4-1.7,1.8-2.7c1.7,1.6,3.9,2.4,6,2.4c2.2,0,4.5-0.8,6.2-2.5c1.7-1.7,2.5-3.9,2.5-6.2  c0-2.2-0.8-4.5-2.5-6.2L47.8,66.2c0,0,0,0,0,0l-1-1l18.4-18.4l1,1c0,0,0,0,0,0L77.3,59c1.7,1.7,3.9,2.5,6.2,2.5  c2.2,0,4.5-0.8,6.2-2.5c1.7-1.7,2.5-3.9,2.5-6.2c0-2.2-0.8-4.3-2.4-6c1-0.4,1.9-1,2.7-1.8c1.7-1.7,2.5-3.9,2.5-6.2  c0-2.2-0.8-4.4-2.5-6.1c0,0,0,0,0,0L85.8,26l0.8-0.8c1.6-1.6,2.5-3.8,2.5-5.9c0-2.1-0.8-4.3-2.5-5.9C85,11.7,82.9,10.9,80.7,10.9z   M22.1,81.9l-0.8,0.8c-0.6,0.6-1.3,0.8-2,0.8c-0.7,0-1.4-0.3-2-0.8v0c-0.6-0.6-0.8-1.2-0.8-2c0-0.7,0.3-1.4,0.8-2l0.8-0.8L22.1,81.9  z M41,84.1c0.6,0.6,0.9,1.4,0.9,2.2c0,0.8-0.3,1.6-0.9,2.2c-0.6,0.6-1.4,0.9-2.2,0.9c-0.8,0-1.6-0.3-2.2-0.9L20.1,72l-8.6-8.6  c-0.6-0.6-0.9-1.4-0.9-2.2c0-0.8,0.3-1.6,0.9-2.2c0.6-0.6,1.4-0.9,2.2-0.9c0.8,0,1.6,0.3,2.2,0.9L41,84.1z M29.9,56.2  C29.9,56.2,29.9,56.2,29.9,56.2l10.9,10.9l3,3L55,81.3c0.6,0.6,0.9,1.4,0.9,2.2c0,0.8-0.3,1.6-0.9,2.2c-0.6,0.6-1.4,0.9-2.2,0.9  c-0.8,0-1.6-0.3-2.2-0.9L19.9,55l-5.6-5.6c-0.6-0.6-0.9-1.4-0.9-2.2c0-0.8,0.3-1.6,0.9-2.2c0.6-0.6,1.4-0.9,2.2-0.9  c0.8,0,1.6,0.3,2.2,0.9L29.9,56.2z M61.2,42.8L42.8,61.2l-3.9-3.9l18.4-18.4L61.2,42.8z M55,19.9l30.7,30.7c0.6,0.6,0.9,1.4,0.9,2.2  c0,0.8-0.3,1.6-0.9,2.2c-0.6,0.6-1.4,0.9-2.2,0.9c-0.8,0-1.6-0.3-2.2-0.9L70.1,43.8l-3-3L56.2,29.9c0,0,0,0,0,0L45,18.7  c-0.6-0.6-0.9-1.4-0.9-2.2c0-0.8,0.3-1.6,0.9-2.2c0.6-0.6,1.4-0.9,2.2-0.9c0.8,0,1.6,0.3,2.2,0.9L55,19.9z M72,20.1l16.5,16.5  c0.6,0.6,0.9,1.4,0.9,2.2c0,0.8-0.3,1.6-0.9,2.2c-0.6,0.6-1.4,0.9-2.2,0.9c-0.8,0-1.6-0.3-2.2-0.9L59,15.9c-0.6-0.6-0.9-1.4-0.9-2.2  c0-0.8,0.3-1.6,0.9-2.2c0.6-0.6,1.4-0.9,2.2-0.9c0.8,0,1.6,0.3,2.2,0.9L72,20.1z M83.5,19.3c0,0.7-0.3,1.4-0.8,2l-0.8,0.8l-3.9-3.9  l0.8-0.8c0.6-0.6,1.3-0.8,2-0.8c0.7,0,1.4,0.3,2,0.8h0C83.2,17.9,83.5,18.6,83.5,19.3z"></path></svg></g><line x1="51.5" y1="0" x2="51.5" y2="100%" stroke="#3A96F3" stroke-width="3"></line><path fill="#3A96F3" fill-rule="nonzero" d="M2.81 16.97L0.10 16.97Q0 16.97 0 16.85L0 16.85L0.05 0.36Q0.05 0.26 0.14 0.26L0.14 0.26L3.07 0.26Q3.17 0.26 3.24 0.36L3.24 0.36L5.42 3.53L7.61 0.36Q7.68 0.26 7.78 0.26L7.78 0.26L10.73 0.26Q10.82 0.26 10.82 0.36L10.82 0.36L10.87 16.85Q10.87 16.97 10.78 16.97L10.78 16.97L8.06 16.97Q7.97 16.97 7.97 16.85L7.97 16.85L7.94 4.61L5.42 8.26L2.93 4.61L2.90 16.85Q2.90 16.97 2.81 16.97L2.81 16.97ZM17.33 17.21L17.33 17.21Q16.03 17.21 14.96 16.55Q13.90 15.89 13.25 14.80Q12.60 13.70 12.60 12.38L12.60 12.38L12.62 4.78Q12.62 3.46 13.26 2.38Q13.90 1.30 14.98 0.65Q16.06 0 17.33 0L17.33 0Q18.62 0 19.68 0.65Q20.74 1.30 21.37 2.38Q22.01 3.46 22.01 4.78L22.01 4.78L22.03 12.38Q22.03 13.70 21.40 14.80Q20.76 15.89 19.69 16.55Q18.62 17.21 17.33 17.21ZM17.33 14.30L17.33 14.30Q18.05 14.30 18.59 13.72Q19.13 13.13 19.13 12.38L19.13 12.38L19.10 4.78Q19.10 3.98 18.60 3.43Q18.10 2.88 17.33 2.88L17.33 2.88Q16.58 2.88 16.06 3.42Q15.53 3.96 15.53 4.78L15.53 4.78L15.53 12.38Q15.53 13.18 16.06 13.74Q16.58 14.30 17.33 14.30ZM29.02 16.97L26.11 16.97Q26.02 16.97 25.99 16.85L25.99 16.85L22.68 0.36Q22.66 0.26 22.78 0.26L22.78 0.26L25.49 0.26Q25.58 0.26 25.61 0.36L25.61 0.36L27.58 11.35L29.50 0.36Q29.52 0.26 29.62 0.26L29.62 0.26L32.30 0.26Q32.42 0.26 32.40 0.36L32.40 0.36L29.14 16.85Q29.11 16.97 29.02 16.97L29.02 16.97ZM41.66 16.97L33.91 16.97Q33.82 16.97 33.82 16.85L33.82 16.85L33.84 0.36Q33.84 0.26 33.94 0.26L33.94 0.26L41.64 0.26Q41.74 0.26 41.74 0.38L41.74 0.38L41.74 3.07Q41.74 3.17 41.64 3.17L41.64 3.17L36.72 3.17L36.72 6.91L41.64 6.91Q41.74 6.91 41.74 7.01L41.74 7.01L41.76 9.72Q41.76 9.82 41.66 9.82L41.66 9.82L36.72 9.82L36.72 14.02L41.66 14.02Q41.76 14.02 41.76 14.14L41.76 14.14L41.76 16.87Q41.76 16.97 41.66 16.97L41.66 16.97ZM51.53 17.21L51.53 17.21Q50.23 17.21 49.16 16.55Q48.10 15.89 47.46 14.80Q46.82 13.70 46.82 12.38L46.82 12.38L46.82 11.28Q46.82 11.16 46.94 11.16L46.94 11.16L49.63 11.16Q49.73 11.16 49.73 11.28L49.73 11.28L49.73 12.38Q49.73 13.18 50.26 13.74Q50.78 14.30 51.53 14.30L51.53 14.30Q52.27 14.30 52.80 13.73Q53.33 13.15 53.33 12.38L53.33 12.38Q53.33 11.50 52.18 10.85L52.18 10.85Q51.79 10.63 50.98 10.18Q50.16 9.72 49.44 9.31L49.44 9.31Q48.12 8.54 47.48 7.38Q46.85 6.22 46.85 4.75L46.85 4.75Q46.85 3.41 47.50 2.34Q48.14 1.27 49.21 0.65Q50.28 0.02 51.53 0.02L51.53 0.02Q52.80 0.02 53.87 0.66Q54.94 1.30 55.57 2.36Q56.21 3.43 56.21 4.75L56.21 4.75L56.21 6.72Q56.21 6.82 56.11 6.82L56.11 6.82L53.42 6.82Q53.33 6.82 53.33 6.72L53.33 6.72L53.30 4.75Q53.30 3.91 52.78 3.38Q52.25 2.86 51.53 2.86L51.53 2.86Q50.78 2.86 50.26 3.42Q49.73 3.98 49.73 4.75L49.73 4.75Q49.73 5.54 50.06 6.07Q50.40 6.60 51.29 7.08L51.29 7.08Q51.41 7.15 51.76 7.33Q52.10 7.51 52.51 7.74Q52.92 7.97 53.24 8.14Q53.57 8.30 53.64 8.35L53.64 8.35Q54.84 9.02 55.54 10.00Q56.23 10.97 56.23 12.38L56.23 12.38Q56.23 13.75 55.60 14.84Q54.96 15.94 53.89 16.57Q52.82 17.21 51.53 17.21ZM60.72 16.97L58.01 16.97Q57.91 16.97 57.91 16.85L57.91 16.85L57.94 0.36Q57.94 0.26 58.06 0.26L58.06 0.26L60.72 0.26Q60.84 0.26 60.84 0.36L60.84 0.36L60.82 6.89L64.42 6.89L64.42 0.36Q64.42 0.26 64.51 0.26L64.51 0.26L67.18 0.26Q67.30 0.26 67.30 0.36L67.30 0.36L67.34 16.85Q67.34 16.97 67.22 16.97L67.22 16.97L64.54 16.97Q64.42 16.97 64.42 16.85L64.42 16.85L64.42 9.79L60.82 9.79L60.82 16.85Q60.82 16.97 60.72 16.97L60.72 16.97ZM68.50 16.85L68.50 16.85L71.47 0.36Q71.50 0.26 71.59 0.26L71.59 0.26L75.07 0.26Q75.17 0.26 75.19 0.36L75.19 0.36L78.05 16.85Q78.07 16.97 77.95 16.97L77.95 16.97L75.29 16.97Q75.19 16.97 75.17 16.85L75.17 16.85L74.90 15.10L71.64 15.10L71.38 16.85Q71.35 16.97 71.26 16.97L71.26 16.97L68.59 16.97Q68.50 16.97 68.50 16.85ZM73.20 5.78L72.12 12.53L74.42 12.53L73.44 5.78L73.30 4.90L73.20 5.78ZM82.37 16.97L79.66 16.97Q79.56 16.97 79.56 16.85L79.56 16.85L79.61 0.36Q79.61 0.26 79.70 0.26L79.70 0.26L84.55 0.26Q85.85 0.26 86.94 0.90Q88.03 1.54 88.68 2.60Q89.33 3.67 89.33 5.02L89.33 5.02Q89.33 5.90 89.06 6.61Q88.80 7.32 88.44 7.81Q88.08 8.30 87.79 8.54L87.79 8.54Q89.09 9.98 89.09 11.93L89.09 11.93L89.11 16.85Q89.11 16.97 88.99 16.97L88.99 16.97L86.28 16.97Q86.18 16.97 86.18 16.90L86.18 16.90L86.18 11.93Q86.18 11.06 85.57 10.43Q84.96 9.79 84.07 9.79L84.07 9.79L82.49 9.79L82.46 16.85Q82.46 16.97 82.37 16.97L82.37 16.97ZM82.49 3.14L82.49 6.91L84.55 6.91Q85.30 6.91 85.87 6.36Q86.45 5.81 86.45 5.02L86.45 5.02Q86.45 4.25 85.88 3.70Q85.32 3.14 84.55 3.14L84.55 3.14L82.49 3.14ZM98.98 16.97L91.22 16.97Q91.13 16.97 91.13 16.85L91.13 16.85L91.15 0.36Q91.15 0.26 91.25 0.26L91.25 0.26L98.95 0.26Q99.05 0.26 99.05 0.38L99.05 0.38L99.05 3.07Q99.05 3.17 98.95 3.17L98.95 3.17L94.03 3.17L94.03 6.91L98.95 6.91Q99.05 6.91 99.05 7.01L99.05 7.01L99.07 9.72Q99.07 9.82 98.98 9.82L98.98 9.82L94.03 9.82L94.03 14.02L98.98 14.02Q99.07 14.02 99.07 14.14L99.07 14.14L99.07 16.87Q99.07 16.97 98.98 16.97L98.98 16.97Z" transform="translate(65 18.016)"></path></svg>